<svg width="40" height="40" viewBox="0 0 512 512" fill="none" xmlns="http://www.w3.org/2000/svg">
<defs>
<linearGradient id="bg" x1="0" y1="0" x2="512" y2="512" gradientUnits="userSpaceOnUse">
<stop offset="0" stop-color="#4F46E5"/>
<stop offset="0.55" stop-color="#7C3AED"/>
<stop offset="1" stop-color="#C026D3"/>
</linearGradient>
<linearGradient id="gloss" x1="256" y1="0" x2="256" y2="512" gradientUnits="userSpaceOnUse">
<stop offset="0" stop-color="#FFFFFF" stop-opacity="0.25"/>
<stop offset="0.5" stop-color="#FFFFFF" stop-opacity="0"/>
</linearGradient>
<linearGradient id="glyph" x1="256" y1="110" x2="256" y2="400" gradientUnits="userSpaceOnUse">
<stop offset="0" stop-color="#FFFFFF"/>
<stop offset="1" stop-color="#E0E7FF"/>
</linearGradient>
</defs>
<rect width="512" height="512" rx="116" fill="url(#bg)"/>
<rect width="512" height="512" rx="116" fill="url(#gloss)"/>
<path d="M148 388L256 128L364 388" stroke="url(#glyph)" stroke-width="46" stroke-linecap="round" stroke-linejoin="round"/>
<path d="M256 246C262 286 288 308 332 316C288 324 262 346 256 386C250 346 224 324 180 316C224 308 250 286 256 246Z" fill="url(#glyph)"/>
<path d="M378 122C381 144 393 156 415 159C393 162 381 174 378 196C375 174 363 162 341 159C363 156 375 144 378 122Z" fill="#FFFFFF" fill-opacity="0.92"/>
</svg>
